<?xml version="1.0" encoding="utf-8"?>
<!-- Generator: Adobe Illustrator 23.0.1, SVG Export Plug-In . SVG Version: 6.00 Build 0)  -->
<svg version="1.1" id="Livello_1" xmlns="http://www.w3.org/2000/svg" xmlns:xlink="http://www.w3.org/1999/xlink" x="0px" y="0px"
	 viewBox="0 0 100 100" style="enable-background:new 0 0 100 100;" xml:space="preserve">
<g>
	<path style="fill:#7F7F7F;" d="M74.6,71.1c-0.2,3.2,0.8,5.2,3.6,6c0.4,0.1,0.9,0.5,1.2,0.8c2.1,2.1,4,4.5,6.1,6.5
		c2.6,2.3,2.6,5.2,2,8.3c-0.1,0.5-0.6,1-0.6,1.5c0.1,2.9-0.7,4.6-3.6,3.9c-0.5-0.1-1.1,0.4-1.6,0.6c-2.3-2.9-4.8-3.9-8.2-3.2
		c-2.4,0.5-5-0.4-7.7-0.7c-0.4,0.8-0.9,2.6-1.9,3.4c-1.3,1-3.1,1.2-4.7,1.7c-0.5-2-1.3-3.9-1.4-5.9c-0.2-2.7,0.4-5.5,0.1-8.2
		c-0.2-1.6-1.5-3-2.8-5.4c-1.8,3.5-3.6,6-4.4,8.9c-0.7,2.5-2.1,2.8-3.5,2.1c-0.9-0.5-1.7-2.4-1.7-3.7c-0.1-3.1,0.6-6.1,0.5-9.2
		c0-1.2-1.2-2.3-2.1-3.9c-1.7,3-1.6,4.7-1.1,7.5c0.6,3.2-1.1,7-2.2,10.4c-0.3,0.8-2.5,0.6-4.6,1c-0.4-3.4-0.9-6.6-1.2-9.8
		c-0.2-2,0-4.1,0-6.1c0.1-6.1-2.1-8.9-7.3-10.4c-1.8-0.5-3.7-1.4-5-2.9c-1.5-1.6-1.2-3.5,1-4.8c1.9-1.2,3.6-2.9,5.4-4.4
		c-5.1-3.7-10.4-8.2-16.2-11.4c-2.5-1.3-5-4.1-8.6-3c-1,0.3-3-2.4-4.2-4.1c-0.2-0.2,1.3-2.4,2.3-3.3c1.3-1.1,2.9-1.6,4.4-2.5
		c0.4-0.2,1.2-0.7,1.1-0.9c-0.5-4.3,3.6-4.8,4.8-8c1.3,0.9,2.5,1.7,3.9,2.7c0.1-0.9,0.1-1.6,0.2-2.2c0.2-0.1,0.4-0.3,0.5-0.2
		c5.2,2.8,11.4,0.3,16.4,4.6c2,1.7,4.3,1,4.9-2.3c0.4-2,0.5-4.2,0.5-6.3c0-3.5,2.4-6.5,5-6.1c-0.9,4.4-0.8,4.3,3.3,4.8
		c1,0.1,2.4,2,2.5,3.2c0.5,5,0.5,10.1,0.8,15.2c0,0.8,0.9,1.5,1.3,2.3c0.5-0.7,1.3-1.5,1.3-2.2c0-4.1,0-8.1-0.5-12.1
		c-0.5-4,0.8-6.5,3.7-7.2c1.6,1.8,2.9,3.6,4.5,4.8c1.5,1.2,2.3,0.1,2.4-1.8c0.2-3.7,0.2-7.3,0.8-10.9c0.3-2.1,1.2-4.3,2.5-5.9
		c1.2-1.5,3-2.1,3.6,1.1c0.1,0.8,0.7,2,1.3,2.1c3.9,1,3.5,4.6,3.7,7.8c0.3,5.5,0.9,10.9,0.8,16.4c0,5.4-0.7,10.9-1,16.3
		c-0.2,3.2-0.2,6.3-0.1,9.5c0.1,3.5,2.7,4.1,4.9,5c3,1.3,6.1,2.3,9.2,3.5c-0.3,5.7,4.1,5.5,6.6,7.7c0.6,0.6,1.7,1.5,1.6,1.9
		c-1,3.2,0.7,4.6,2.8,5.4c-0.6,3.4-5.4,5.1-8,3.3c-4.1-2.9-8.4-5.5-12.7-8.2C77.8,73.1,76.3,72.2,74.6,71.1z M68.4,30.4
		c-0.6,1-1.1,1.4-1.1,1.8c-0.4,4.3-0.8,8.7-1.1,13.1c-0.1,1.4,0.1,3,0.6,4.3c0.2,0.7,1.3,1.1,2,1.6c0.3-0.6,0.9-1.2,0.9-1.8
		c-0.1-5.4-0.2-10.8-0.4-16.2C69.2,32.3,68.8,31.6,68.4,30.4z M34.5,59.6c-1.8-1.9-2.4-2.4-3-3c-0.4,0.7-1.2,1.4-1.1,2
		c0.1,0.8,0.8,1.8,1.4,2C32.4,60.7,33.3,60,34.5,59.6z M57.9,66c-0.5,0.1-1,0.2-1.4,0.3c0.2,1.2,0.4,2.4,0.6,3.6
		c0.4-0.1,0.9-0.1,1.3-0.2C58.2,68.5,58,67.2,57.9,66z M31.5,28.2c-0.5-0.6-1-1.1-1.4-1.7c-0.4,0.4-0.8,0.8-1.2,1.1
		c0.2,0.3,0.5,0.9,0.7,0.9C30.2,28.5,30.8,28.3,31.5,28.2z"/>
</g>
</svg>
