<?xml version="1.0" encoding="utf-8"?>
<!-- Generator: Adobe Illustrator 23.0.1, SVG Export Plug-In . SVG Version: 6.00 Build 0)  -->
<svg version="1.1" id="Livello_1" xmlns="http://www.w3.org/2000/svg" xmlns:xlink="http://www.w3.org/1999/xlink" x="0px" y="0px"
	 viewBox="0 0 100 100" style="enable-background:new 0 0 100 100;" xml:space="preserve">
<g>
	<path style="fill:#7F7F7F;" d="M70.8,19.8c2.3-2.6,5.6-4.6,5.1-8.7c2.2-0.7,4.4-1.3,6.6-2c0.4-0.5,0.8-1.1,1.2-1.6
		c1.2,2.8,2.3,5.7,3.5,8.5c0.5-0.6,1-1.1,1.5-1.7c0.5,2.1,0.9,4.2,1.4,6.4c0.3-0.1,0.5-0.1,0.8-0.2c-0.7,2-1.2,4.2-2.1,6.1
		c-0.6,1.2-1.9,2-2.8,3.1c-1.9,2.1-3.8,4.2-5.5,6.4c-2.4,3.2-4.5,6.6-7.1,10.4c4.2,3.7,8,7.4,12.3,10.5c1.9,1.4,4.8,1.4,7.3,1.9
		c3.3,0.8,5.5,2.6,6.6,5.8c-0.3,0.1-0.6,0.2-0.9,0.2c0.3,1.7,0.7,3.4,1,5.1c0.2,1,0.3,2.1,0.4,3.1c-1.7,0.1-3.8,0.9-4.9,0.2
		c-4.5-3-8.9-6.3-13-9.9c-2.6-2.3-4.5-5.3-6.8-7.8c-1.3-1.4-2.9-2.5-5-4.3c1,3,1.7,5.2,2.5,7.4c0.2-0.1,0.3-0.2,0.5-0.4
		c4.1,6.7,8.2,13.5,12.3,20.2c-1.5,1.3-2.2,2-3.1,2.7c0.2,0.5,0.5,0.9,0.4,1.4c-0.2,1.4,0,3.4-0.8,4.1c-0.8,0.7-2.9,0.4-4.1-0.2
		c-2.4-1.1-4.5-2.8-6.7-4.2c-0.3,0.4-0.6,0.7-0.9,1.1c2.4,2.1,4.8,4.1,7.5,6.4c-3.5,3-2.9,6-1.2,9c-3.1,2.4-5-0.2-7-1.4
		c-2.4-1.4-4.7-3-6.9-4.7c-1.4-1.1-2.5-2.7-3.9-4c-3.4-3.3-6.9-6.5-10.4-9.6c-0.2-0.2-0.8-0.1-1.2-0.1C46.7,85.1,44,89.4,39,92.1
		c-2.6,2.1-4.9,4.2-7.6,5.7c-0.7,0.4-2.8-0.7-3.6-1.6c-0.8-1-1.1-2.8-0.8-4c0.4-1.6,1.6-2.9,2.6-4.5c-1.7-1.8-3.4-3.6-5.1-5.5
		c0.6-1,1.1-1.9,1.7-2.7c1.7-2.4,1.8-4.3-1.1-5.9c-1-0.6-1.4-2.1-2.2-3.1c-0.5-0.7-0.8-1.5-1.4-2c-3-2.4-4.6-5.3-2.6-8.3
		c2.1-3,1.6-5.3-1.3-8c-4.3-4-7.9-8.8-11.8-13.2c-1.2-1.3-2.6-2.5-4-3.6C0.1,34-0.7,32,0.8,30.3C2,29,4,28.2,5.8,27.8
		c1.1-0.2,2.4,0.6,3.5,1c0,1.5,0,2.8,0,4.4c1.3-0.5,2-0.9,2.8-1.2c5.1,5,9.2,11,16.9,12.5c-0.2-0.5-0.2-1.3-0.5-1.7
		c-3.7-4.8-7.3-9.6-11.1-14.3C14.6,25,11.5,21.8,9,18.2C8.3,17.3,8.5,15,9.3,14c1-1.4,3-2.2,4.9-3.5c0.8,1.4,1.5,2.4,2.1,3.5
		c1.4,2.5,4.3,3.7,7.1,2.6c2.8-1.1,4.7,0.4,6.6,2.2c2.5,2.4,5.1,4.8,7.8,7c0.7,0.6,1.9,0.5,2.9,0.7c0-1.1,0.6-2.5,0.1-3.3
		c-1.4-2.3-3.2-4.4-5-6.5c-2.4-2.7-4.9-5.3-7.3-7.9c-0.5-0.5-0.8-1.2-1-1.8c-1.4-3-0.1-5.1,2.2-7C34,0.9,46,12.6,47.4,17.9
		c0.8-1.2,1.3-2.1,1.9-2.8c3.1-3.7,6-7.6,9.4-11.1c0.9-0.9,2.9-0.9,4.4-0.9c0.3,0,0.7,1.8,0.9,2.8c0.5,1.9,0.3,4.8,5,2.4
		c-1.6,3.5-2.7,5.8-3.9,8.3c1.7,0.9,3.6,1.8,5.4,2.7c-0.4,0.4-0.7,0.8-1.1,1.2c0.2,0.1,0.4,0.3,0.5,0.4
		C70.2,20.6,70.5,20.2,70.8,19.8z M41.9,70.8c-4.1,1.2-5.6,3.7-4.5,6.3C39,75,40.4,72.9,41.9,70.8z M27.7,29c-0.3,0.3-0.6,0.7-1,1
		c0.5,0.6,1,1.3,1.5,1.9c0.4-0.4,0.8-0.8,1.2-1.2C28.8,30.1,28.3,29.6,27.7,29z M66.7,35.5c0.3,0.2,0.5,0.3,0.8,0.5
		c0.2-0.5,0.4-1,0.6-1.4c-0.2-0.1-0.4-0.2-0.6-0.3C67.3,34.6,67,35.1,66.7,35.5z M65.3,58.2c-0.1,0.2-0.2,0.4-0.4,0.7
		c0.4,0.4,0.9,0.7,1.3,1.1c0.2-0.4,0.4-0.8,0.6-1.2C66.4,58.5,65.9,58.3,65.3,58.2z M69.8,30.4c-0.3,0.5-0.6,0.8-0.7,1.1
		c0,0.1,0.5,0.6,0.6,0.5c0.3-0.2,0.6-0.4,0.7-0.7C70.4,31.1,70.1,30.8,69.8,30.4z"/>
</g>
</svg>
